Coordinates
version=1
nRows=17
nColumns=40
inDegrees=yes

Units are S.I. units (second, meters, Newtons, ...)
Angles are in degrees.

endheader
time	pelvis_tilt	pelvis_list	pelvis_rotation	pelvis_tx	pelvis_ty	pelvis_tz	hip_flexion_r	hip_adduction_r	hip_rotation_r	knee_angle_r	knee_angle_r_beta	ankle_angle_r	subtalar_angle_r	mtp_angle_r	hip_flexion_l	hip_adduction_l	hip_rotation_l	knee_angle_l	knee_angle_l_beta	ankle_angle_l	subtalar_angle_l	mtp_angle_l	lumbar_extension	lumbar_bending	lumbar_rotation	arm_flex_r	arm_add_r	arm_rot_r	elbow_flex_r	pro_sup_r	wrist_flex_r	wrist_dev_r	arm_flex_l	arm_add_l	arm_rot_l	elbow_flex_l	pro_sup_l	wrist_flex_l	wrist_dev_l
      0.00000000	     -3.47151618	     -4.79089620	     10.61857929	     -1.32175645	      0.87981332	     -0.99645879	     17.46948636	      4.75501700	    -20.15026565	    -23.10252459	     -0.40321512	      7.36008417	     -7.62579005	      5.14492336	     13.44899372	     13.48908277	     11.15371174	    -53.31356952	     -0.93049732	      7.62340031	     18.84808077	     22.79746828	     -1.57890779	      2.75571777	     -6.16141724	     -2.17002795	     -7.59027460	    -10.39412286	     20.38958044	     89.95437384	      0.00000000	      0.00000000	      0.48552805	     11.98323384	     13.44414312	     42.16747554	     89.95437384	      0.00000000	      0.00000000
      0.01000000	     -3.37809284	     -4.43448224	     10.05640222	     -1.31704720	      0.88028948	     -0.99527301	     16.97516820	      4.59603907	    -19.89756433	    -23.14480037	     -0.40395297	      7.53111563	     -7.37992667	      5.04581952	     13.96442023	     12.93918067	     10.51271950	    -54.27970575	     -0.94735958	      7.58419921	     18.73347289	     22.31303692	     -1.80955932	      2.55044255	     -5.92164120	     -1.83360716	     -7.67938031	    -10.31319724	     20.61203682	     89.95437384	      0.00000000	      0.00000000	      0.19432290	     11.86577471	     13.54660023	     41.87757281	     89.95437384	      0.00000000	      0.00000000
      0.02000000	     -3.30829325	     -4.18957937	      9.79846683	     -1.31239148	      0.88064897	     -0.99474695	     16.42100574	      4.53400599	    -19.59831401	    -22.95018577	     -0.40055631	      8.06104048	     -6.90094454	      4.91484917	     14.63949423	     12.32867917	      9.44204564	    -55.21766363	     -0.96373004	      7.83938006	     18.62567359	     21.79897095	     -1.90078332	      2.41270319	     -5.88497993	     -1.52020320	     -7.80281056	    -10.21232060	     20.74021344	     89.95437384	      0.00000000	      0.00000000	      0.06652834	     11.66980898	     13.70754916	     41.22789088	     89.95437384	      0.00000000	      0.00000000
      0.03000000	     -3.23526088	     -3.88426474	      9.31264649	     -1.30804795	      0.88103162	     -0.99388554	     15.99213754	      4.38476373	    -19.36937595	    -22.98374305	     -0.40114199	      8.21066975	     -6.58803546	      4.79492115	     15.29725742	     11.78352519	      8.84690328	    -56.01745305	     -0.97768899	      7.69920162	     18.42882095	     21.30084500	     -2.07815468	      2.20081765	     -5.60170784	     -1.23494806	     -7.91248101	    -10.14522677	     21.02160528	     89.95437384	      0.00000000	      0.00000000	     -0.23914059	     11.60221152	     13.61374158	     41.02421325	     89.95437384	      0.00000000	      0.00000000
      0.04000000	     -3.16741238	     -3.61169079	      8.86344020	     -1.30368282	      0.88137696	     -0.99299103	     15.58528488	      4.28427269	    -19.08286274	    -22.99097873	     -0.40126828	      8.42659239	     -6.31574971	      4.67298475	     15.94435479	     11.24402289	      8.24213339	    -56.72493218	     -0.99003683	      7.58714984	     18.28740885	     20.85493033	     -2.24027308	      2.02526858	     -5.33487622	     -0.93858175	     -8.02160922	    -10.05899130	     21.28683528	     89.95437384	      0.00000000	      0.00000000	     -0.35987909	     11.42561448	     13.66378151	     40.47502264	     89.95437384	      0.00000000	      0.00000000
      0.05000000	     -3.16567871	     -3.45272495	      8.47380692	     -1.29959674	      0.88175887	     -0.99206615	     15.24062714	      4.36498258	    -18.52252482	    -22.90526540	     -0.39977230	      8.79988414	     -6.00203413	      4.54398126	     16.71874376	     10.79665214	      7.58422667	    -57.29781031	     -1.00003544	      7.63014403	     18.41069444	     20.47768182	     -2.31746845	      1.95871850	     -5.15075055	     -0.61026598	     -8.13171442	    -10.00648677	     21.55939307	     89.95437384	      0.00000000	      0.00000000	     -0.36719981	     11.22607837	     13.88958012	     39.62523298	     89.95437384	      0.00000000	      0.00000000
      0.06000000	     -3.12285013	     -3.21122759	      7.99749492	     -1.29486894	      0.88203242	     -0.99112384	     14.80589132	      4.24633293	    -18.48153508	    -22.87614398	     -0.39926403	      8.91536899	     -5.87111648	      4.45884685	     17.31323795	     10.45336217	      7.38710005	    -57.73718829	     -1.00770404	      7.69400515	     18.32387702	     20.13508104	     -2.38852951	      1.77053804	     -4.84723905	     -0.38916006	     -8.19205193	     -9.96376837	     21.82818799	     89.95437384	      0.00000000	      0.00000000	     -0.61977712	     11.03581577	     13.96043753	     39.23623954	     89.95437384	      0.00000000	      0.00000000
      0.07000000	     -3.05139060	     -3.07800793	      7.65342817	     -1.29068605	      0.88251168	     -0.99036095	     14.36875203	      4.33915610	    -17.82173494	    -22.81525078	     -0.39820125	      9.16689978	     -5.53933849	      4.33438146	     17.93534329	     10.06285949	      6.86699118	    -58.02403930	     -1.01271053	      8.21285358	     18.49458569	     19.82697753	     -2.53010778	      1.76839265	     -4.71606562	     -0.10679540	     -8.29660453	     -9.87521631	     22.25581539	     89.95437384	      0.00000000	      0.00000000	     -0.57060652	     10.76239891	     14.34615336	     38.24340987	     89.95437384	      0.00000000	      0.00000000
      0.08000000	     -3.01836905	     -2.85897530	      7.11357257	     -1.28606767	      0.88290581	     -0.98924663	     13.96768864	      4.28629232	    -17.61243074	    -22.76908831	     -0.39739556	      9.28458620	     -5.41640589	      4.25440274	     18.49419158	      9.78408204	      6.85462323	    -58.20000690	     -1.01578175	      8.46573309	     18.58784415	     19.56342965	     -2.58883108	      1.56938796	     -4.37047278	      0.13776076	     -8.34501567	     -9.80329275	     22.55100910	     89.95437384	      0.00000000	      0.00000000	     -0.84225697	     10.63187048	     14.40935829	     37.77965048	     89.95437384	      0.00000000	      0.00000000
      0.09000000	     -2.95759648	     -2.62843870	      6.70607478	     -1.28180946	      0.88334992	     -0.98842198	     13.51210243	      4.27609112	    -16.92697114	    -22.64391509	     -0.39521087	      9.58427402	     -5.20269344	      4.13319240	     19.03075784	      9.42228268	      6.66850298	    -58.24753701	     -1.01661130	      8.99676060	     18.60334246	     19.32777563	     -2.72657871	      1.40959553	     -4.11654090	      0.34079771	     -8.42118872	     -9.68353810	     23.04569276	     89.95437384	      0.00000000	      0.00000000	     -0.87634708	     10.44963423	     14.60100475	     36.97938493	     89.95437384	      0.00000000	      0.00000000
      0.10000000	     -2.90858306	     -2.46234382	      6.30713851	     -1.27733364	      0.88376131	     -0.98754555	     13.08502820	      4.25558149	    -16.69444054	    -22.58364279	     -0.39415892	      9.77313649	     -5.14436857	      4.05736406	     19.57712775	      9.22090360	      6.66327732	    -58.15985228	     -1.01508091	      9.26420926	     18.65888897	     19.14782584	     -2.78670869	      1.28009862	     -3.88738687	      0.53546951	     -8.46803349	     -9.52432799	     23.47841612	     89.95437384	      0.00000000	      0.00000000	     -1.06799065	     10.31420153	     14.65824806	     36.38579090	     89.95437384	      0.00000000	      0.00000000
      0.11000000	     -2.87522713	     -2.31948781	      5.94717206	     -1.27324810	      0.88412559	     -0.98670610	     12.71302134	      4.26195011	    -16.35947989	    -22.49960780	     -0.39269224	      9.90621959	     -5.05122333	      3.97532060	     20.20651045	      8.99790844	      6.57834230	    -58.05039286	     -1.01317049	      9.58385732	     18.77646600	     18.98171714	     -2.89943095	      1.16732787	     -3.64688715	      0.72235047	     -8.52666594	     -9.37769805	     23.97763610	     89.95437384	      0.00000000	      0.00000000	     -1.15479041	     10.17872737	     14.69889070	     35.76556495	     89.95437384	      0.00000000	      0.00000000
      0.12000000	     -2.76567089	     -2.13343313	      5.39961910	     -1.26895878	      0.88463865	     -0.98556571	     12.16708782	      4.36305090	    -15.51950374	    -22.20307791	     -0.38751681	     10.13162099	     -5.12251717	      3.90899868	     20.58728429	      8.80541098	      6.74823735	    -57.65687601	     -1.00630232	     10.20192653	     18.79504580	     19.41453528	     -3.08051038	      1.03093761	     -3.16842134	      0.68844841	     -8.67458785	     -8.86486191	     24.87821828	     89.95437384	      0.00000000	      0.00000000	     -1.10929598	      9.99327181	     14.91511005	     34.90524691	     89.95437384	      0.00000000	      0.00000000
      0.13000000	     -2.79504246	     -2.00599569	      5.14472601	     -1.26492020	      0.88488376	     -0.98498655	     11.84391292	      4.34338939	    -15.20783691	    -22.14892919	     -0.38657174	     10.36248424	     -5.14510397	      3.82352329	     21.31170138	      8.55179269	      6.58528932	    -57.38475164	     -1.00155286	     10.45083081	     18.81569982	     19.39819007	     -3.10976004	      0.94985537	     -3.08189699	      0.93434108	     -8.72308981	     -8.71365024	     25.30360026	     89.95437384	      0.00000000	      0.00000000	     -1.25241337	      9.86985649	     14.91807738	     34.28088583	     89.95437384	      0.00000000	      0.00000000
      0.14000000	     -2.84797872	     -1.89660366	      4.85224382	     -1.26078967	      0.88502858	     -0.98424624	     11.60367289	      4.32183981	    -15.10361601	    -22.14525230	     -0.38650757	     10.41460197	     -5.11700274	      3.75223142	     22.01214600	      8.38082313	      6.62786593	    -56.91988254	     -0.99343936	     10.60196147	     18.86890810	     19.25824177	     -3.05238845	      0.86477326	     -2.82314276	      1.02508875	     -8.75664702	     -8.62825503	     25.84824442	     89.95437384	      0.00000000	      0.00000000	     -1.57769986	      9.72558984	     15.03283183	     34.09846183	     89.95437384	      0.00000000	      0.00000000
      0.15000000	     -2.91777611	     -1.77065778	      4.51444604	     -1.25680058	      0.88509299	     -0.98361077	     11.35748615	      4.31632227	    -14.74008081	    -22.07153267	     -0.38522092	     10.55402932	     -5.07464346	      3.67060961	     22.71967481	      8.13564525	      6.61636217	    -56.40968156	     -0.98453467	     10.88703462	     18.92052087	     19.19473277	     -3.08273600	      0.76076907	     -2.76363762	      1.27187866	     -8.78084806	     -8.40769537	     26.41400423	     89.95437384	      0.00000000	      0.00000000	     -1.70016828	      9.68145041	     14.88617154	     33.41961058	     89.95437384	      0.00000000	      0.00000000
      0.16000000	     -3.01527373	     -1.64228654	      4.15300927	     -1.25334345	      0.88507407	     -0.98297307	     11.22052255	      4.24463490	    -14.53817627	    -22.09108470	     -0.38556216	     10.63888045	     -5.03653816	      3.58850617	     23.49975906	      7.93612463	      6.71086405	    -55.82828211	     -0.97438734	     11.01670018	     18.91383763	     19.05060238	     -3.11802943	      0.65912713	     -2.53988849	      1.50236529	     -8.85017004	     -8.21770783	     26.98490484	     89.95437384	      0.00000000	      0.00000000	     -1.84720753	      9.60055567	     14.82112640	     33.03146477	     89.95437384	      0.00000000	      0.00000000
